<svg xmlns="http://www.w3.org/2000/svg" fill-rule="evenodd" stroke-linejoin="round" stroke-miterlimit="2" clip-rule="evenodd" viewBox="0 0 32 32"><path d="M10.904,24.196c-1.02,0 -1.847,0.828 -1.847,1.847c-0,1.019 0.827,1.847 1.847,1.847c1.019,-0 1.847,-0.828 1.847,-1.847c-0,-1.019 -0.828,-1.847 -1.847,-1.847Zm12.278,0c-1.019,0 -1.846,0.828 -1.846,1.847c-0,1.019 0.827,1.847 1.846,1.847c1.02,-0 1.847,-0.828 1.847,-1.847c0,-1.019 -0.827,-1.847 -1.847,-1.847Zm-12.278,0.788c0.584,-0 1.059,0.474 1.059,1.059c-0,0.584 -0.475,1.059 -1.059,1.059c-0.585,-0 -1.059,-0.475 -1.059,-1.059c-0,-0.585 0.474,-1.059 1.059,-1.059Zm12.278,-0c0.585,-0 1.06,0.474 1.06,1.059c-0,0.584 -0.475,1.059 -1.06,1.059c-0.584,-0 -1.059,-0.475 -1.059,-1.059c0,-0.585 0.475,-1.059 1.059,-1.059Zm-16.551,-18.337l2.006,2.006c0,1.218 0,8.946 0,12.585c0,1.262 1.023,2.285 2.285,2.285l14.168,-0c0.217,-0 0.394,-0.177 0.394,-0.394c-0,-0.218 -0.177,-0.394 -0.394,-0.394l-14.168,-0c-0.827,-0 -1.497,-0.67 -1.497,-1.497l0,-12.748c0,-0.105 -0.041,-0.205 -0.115,-0.279l-2.122,-2.121c-0.153,-0.154 -0.403,-0.154 -0.557,0c-0.153,0.154 -0.153,0.403 0,0.557Zm6.603,0.898l-0.289,0c-0.929,0 -1.694,0.728 -1.741,1.656c-0.126,2.489 -0.402,7.962 -0.533,10.556c-0.024,0.477 0.149,0.943 0.478,1.289c0.329,0.347 0.786,0.543 1.263,0.543l9.262,-0c0.477,-0 0.934,-0.196 1.263,-0.543c0.329,-0.346 0.502,-0.812 0.478,-1.289c-0.131,-2.594 -0.407,-8.067 -0.533,-10.556c-0.047,-0.928 -0.812,-1.656 -1.741,-1.656l-0.289,0c-0.197,-1.928 -1.829,-3.435 -3.809,-3.435c-1.98,0 -3.611,1.507 -3.809,3.435Zm-0.822,13.256c-0.261,-0 -0.512,-0.108 -0.692,-0.297c-0.18,-0.19 -0.275,-0.445 -0.262,-0.707c0.131,-2.594 0.407,-8.067 0.533,-10.557c0.025,-0.508 0.445,-0.907 0.954,-0.907l8.196,0c0.509,0 0.929,0.399 0.954,0.907c0.126,2.49 0.402,7.963 0.533,10.557c0.013,0.262 -0.081,0.517 -0.262,0.707c-0.18,0.189 -0.43,0.297 -0.692,0.297l-9.262,-0Zm7.647,-13.256c-0.193,-1.492 -1.471,-2.647 -3.016,-2.647c-1.545,0 -2.822,1.155 -3.016,2.647l6.032,0Z"/></svg>