<svg xmlns="http://www.w3.org/2000/svg" fill="none" viewBox="0 0 64 64"><path stroke="#85d508" stroke-linecap="round" stroke-linejoin="round" stroke-width="2" d="M15 21H17.8377C19.129 21 20.2754 21.8263 20.6838 23.0513L24.6325 34.8974C25.4491 37.3474 27.742 39 30.3246 39H39.7696C42.5439 39 44.9565 37.098 45.6039 34.4002L47.5 26.5M29.5 24H36M39 24H45M42 21V27" class="colorStroke000000 svgStroke"/><circle cx="42" cy="24" r="6" stroke="#85d508" stroke-width="2" class="colorStroke000000 svgStroke"/><path stroke="#85d508" stroke-linecap="round" stroke-linejoin="round" stroke-width="2" d="M28 46L29 46M37 46L38 46M31.5 39H27C25.8954 39 25 39.8954 25 41V41C25 42.1046 25.8954 43 27 43H40" class="colorStroke000000 svgStroke"/></svg>