<svg xmlns="http://www.w3.org/2000/svg" data-name="Layer 1" viewBox="0 0 64 64"><path d="M57 41.06H21.06l-.14-.29c-4.36-9.61-8.29-18.31-12.09-27.38H1.24V8.92H11.88l.13.29c1.62 3.56 3.22 7.26 4.78 10.84 2.41 5.54 4.9 11.26 7.51 16.75H57.08v.5c0 .26 0 .58.05.92a9.11 9.11 0 01-.06 2.47zm-35.27-1H56.16a11.73 11.73 0 000-1.77c0-.17 0-.34 0-.49H23.67l-.14-.29c-2.66-5.59-5.2-11.42-7.66-17.06C14.36 17 12.8 13.38 11.23 9.92h-9v2.47H9.49l.13.31C13.42 21.77 17.34 30.47 21.7 40.06zM50.6 55.08A7.24 7.24 0 0149.47 55 5.36 5.36 0 0146 52.72a6 6 0 01-.92-4.62 5.68 5.68 0 014.31-4.55h0c3.4-.47 6.42 1.54 6.88 4.57a5.91 5.91 0 01-1.5 5.23A5.77 5.77 0 0150.6 55.08zm-1-10.55a4.66 4.66 0 00-3.52 3.72 5.06 5.06 0 00.75 3.9A4.33 4.33 0 0049.63 54a5.05 5.05 0 004.51-1.35 5 5 0 001.24-4.37C55 45.79 52.48 44.16 49.63 44.53zM27.61 55.08A7.85 7.85 0 0126.53 55 6 6 0 0122 48.13a6.3 6.3 0 014.54-4.58h0c3.41-.47 6.43 1.54 6.89 4.57a6.4 6.4 0 01-1.82 5.38A5.66 5.66 0 0127.61 55.08zM26.7 44.53a5.26 5.26 0 00-3.76 3.77A5.07 5.07 0 0026.69 54a4.83 4.83 0 004.22-1.23 5.38 5.38 0 001.53-4.53C32.06 45.79 29.54 44.16 26.7 44.53z"/><path d="M55.84,34.09H25.61l-1.7-4.26h6.36l-1-2.71H22.78l-1.71-4.26h6.34l-.94-2.48H19.91l-1.4-4.49H63Zm-29.55-1H55.16l6.37-16.2H19.87l.78,2.49h6.51l1.7,4.48H22.55l.91,2.26H30l1.66,4.71h-6.3Zm11.05-1.9c-.65,0-1.31,0-2-.06l-.32,0L35,30.82a13.22,13.22,0,0,1-.54-1.89l-.14-.6.62,0c1.51,0,2.88,0,4.27,0l.43,0,0,.43a10,10,0,0,1,.05,2l0,.46H37.34Zm-1.56-1c.82,0,1.66,0,2.48,0h.47c0-.28,0-.58,0-.88-1,0-2.06,0-3.17,0C35.61,29.59,35.68,29.88,35.78,30.16Zm16.12,1-2.46,0H49l0-.47a7.13,7.13,0,0,1,.18-2l.08-.37.39,0c1.18,0,2.35,0,3.52,0h1.7l-.08.57a9.32,9.32,0,0,1-.53,2l-.12.31h-.33C53.14,31.18,52.52,31.18,51.9,31.18Zm-2-1c1.09,0,2.28,0,3.45,0a8.84,8.84,0,0,0,.25-.88h-.52c-1,0-2.06,0-3.1,0A8,8,0,0,0,49.94,30.17Zm-8,1h-.47l0-.46a4.11,4.11,0,0,0-.07-.47,2.67,2.67,0,0,1,.1-1.67l.14-.26h.29c1.27,0,2.57,0,3.85,0h1.7v.48a6.51,6.51,0,0,1-.18,2l-.09.36h-.38C45.15,31.18,43.53,31.18,41.91,31.18Zm.35-1.87a3.18,3.18,0,0,0,.07.78v.09c1.35,0,2.69,0,4,0a5.57,5.57,0,0,0,.07-.87h-.72C44.57,29.28,43.4,29.28,42.26,29.31Zm1.92-2.48a17.33,17.33,0,0,1-2.7-.18l-.37,0,0-.37a12.6,12.6,0,0,1-.12-2v-.45l.44-.05a31.46,31.46,0,0,1,4.55-.1l1.34,0h.47l0,.47a11.48,11.48,0,0,1-.12,2.15l0,.42-.69,0C46,26.78,45.09,26.83,44.18,26.83ZM42,25.71a27.31,27.31,0,0,0,4.7,0c0-.38.06-.75.07-1.1l-.87,0a34.88,34.88,0,0,0-4,.05C42,25.07,42,25.41,42,25.71Zm10.63,1.11q-.89,0-1.74,0l-1.59,0,0-.48a10,10,0,0,1,.15-2.17l.06-.38.38,0a36.72,36.72,0,0,1,4.32-.08l1.28,0h.58l-.1.57a10.69,10.69,0,0,1-.56,2.17l-.11.29-.31,0A22.89,22.89,0,0,1,52.63,26.82Zm-2.36-1h.64a34.22,34.22,0,0,0,3.65,0,7.6,7.6,0,0,0,.3-1.1l-.7,0a37.28,37.28,0,0,0-3.81,0C50.31,25,50.28,25.41,50.27,25.78Zm-13.64,1c-.77,0-1.54,0-2.3-.06h-.19L34,26.6a3,3,0,0,1-.69-1.74c0-.2-.07-.41-.12-.59L33,23.63H35.2c1.19,0,2.43,0,3.63,0l.4,0,.07.4a8.79,8.79,0,0,1,.1,2.26l0,.45H36.63Zm-2-1c1,.06,2.11,0,3.15,0h.67a7.78,7.78,0,0,0-.06-1.16c-1,0-2.12,0-3.16,0h-.92a.15.15,0,0,1,0,.07A3,3,0,0,0,34.61,25.76Zm18.52-3.57H49.62V21.7a18.25,18.25,0,0,1,.12-2.37l0-.43.42,0c1.46-.09,2.94-.08,4.37-.07h2.77l-.1.59a11.88,11.88,0,0,1-.67,2.47l-.12.3h-.33C55.12,22.18,54.13,22.19,53.13,22.19Zm-2.53-1h1c1.38,0,2.76,0,4.13,0a9.53,9.53,0,0,0,.38-1.37H54.55c-1.27,0-2.58,0-3.87,0C50.64,20.3,50.61,20.74,50.6,21.18Zm-15.28,1c-.78,0-1.56,0-2.33,0h-.33l-.12-.3a13.32,13.32,0,0,1-.67-2.44l-.1-.58h.59c2,0,4.1,0,6.13,0H39l0,.46c0,.21.05.42.08.63A4,4,0,0,1,39,21.83l-.11.33h-.35Zm-2-1c1.58,0,3.2,0,4.78,0a5.38,5.38,0,0,0-.07-1.11c0-.09,0-.17,0-.25-1.67,0-3.36,0-5.05,0A10.59,10.59,0,0,0,33.35,21.17Zm11,1c-1,0-2.07,0-3.1,0h-.44l0-.44c-.07-.8-.14-1.59-.14-2.37v-.49h.49c1.63,0,3.26,0,4.89,0h2.08l0,.47a9.71,9.71,0,0,1-.17,2.5l-.09.39h-.4v-.5l-.08.5Zm-2.62-1c1.77.05,3.56,0,5.3,0a8.75,8.75,0,0,0,.1-1.37H46c-1.46,0-2.92,0-4.37,0C41.63,20.26,41.67,20.71,41.71,21.15Z"/></svg>